<svg width="1408" height="106" viewBox="0 0 1408 106" fill="none" xmlns="http://www.w3.org/2000/svg">
<path d="M14.32 91.68H67.94V104H0.0400004V2.5H14.32V91.68ZM80.0205 2.5H148.9V14.82H94.3005V45.62H145.68V57.94H94.3005V91.68H148.9V104H80.0205V2.5ZM191.5 2.5H208.02L246.24 104H230.84L222.86 82.02H176.24L168.4 104H153.84L191.5 2.5ZM180.58 69.84H218.38L199.34 16.92L180.58 69.84ZM254.322 2.5L282.462 89.3L310.042 2.5H325.022L290.582 104H273.502L238.642 2.5H254.322ZM338.419 2.5H407.299V14.82H352.699V45.62H404.079V57.94H352.699V91.68H407.299V104H338.419V2.5ZM420.078 28.4C420.078 19.44 424.138 12.3933 432.258 7.25999C439.258 2.87333 447.425 0.679995 456.758 0.679995C466.558 0.679995 474.772 2.82666 481.398 7.12C488.772 11.9733 493.392 19.0667 495.258 28.4H481.398C478.318 17.9467 469.918 12.72 456.198 12.72C451.158 12.72 446.585 13.7933 442.478 15.94C437.252 18.6467 434.638 22.52 434.638 27.56C434.638 35.4933 440.145 40.6733 451.158 43.1L462.918 45.76C473.092 48 480.745 50.8 485.878 54.16C493.345 59.2 497.078 66.2933 497.078 75.44C497.078 84.96 493.158 92.52 485.318 98.12C478.132 103.253 469.172 105.82 458.438 105.82C446.585 105.82 436.972 102.787 429.598 96.72C422.318 90.84 418.025 82.7667 416.718 72.5H430.718C433.425 86.6867 442.758 93.78 458.718 93.78C466.092 93.78 471.925 92.1933 476.218 89.02C480.325 85.8467 482.378 81.74 482.378 76.7C482.378 67.9267 475.098 61.9533 460.538 58.78L447.938 56.12C429.365 52.0133 420.078 42.7733 420.078 28.4ZM572.808 2.5H589.328L627.548 104H612.148L604.168 82.02H557.548L549.708 104H535.148L572.808 2.5ZM561.888 69.84H599.688L580.648 16.92L561.888 69.84ZM679.51 61.16C677.83 61.2533 675.264 61.3 671.81 61.3H653.89V104H639.61V2.5H671.81C685.717 2.5 695.844 4.32 702.19 7.95999C710.124 12.5333 714.09 20.4667 714.09 31.76C714.09 46.2267 707.37 55.28 693.93 58.92L717.45 104H701.49L679.51 61.16ZM653.89 14.54V49.26H672.93C681.797 49.26 688.05 48.3267 691.69 46.46C696.824 44.0333 699.39 39.2267 699.39 32.04C699.39 24.8533 696.824 19.9533 691.69 17.34C687.957 15.4733 681.704 14.54 672.93 14.54H653.89ZM734.63 2.5H803.51V14.82H748.91V45.62H800.29V57.94H748.91V91.68H803.51V104H734.63V2.5ZM853.712 2.5H919.652V14.82H867.992V45.62H916.712V57.94H867.992V104H853.712V2.5ZM951.383 2.5H967.903L1006.12 104H990.723L982.743 82.02H936.123L928.283 104H913.723L951.383 2.5ZM940.463 69.84H978.263L959.223 16.92L940.463 69.84ZM1032.46 91.68H1086.08V104H1018.18V2.5H1032.46V91.68ZM1112.45 91.68H1166.07V104H1098.17V2.5H1112.45V91.68ZM1192.43 104H1178.15V2.5H1192.43V104ZM1277.32 104L1230.84 17.34V104H1216.56V2.5H1237.56L1283.9 88.88V2.5H1298.18V104H1277.32ZM1364.53 0.679995C1375.17 0.679995 1384.27 3.43333 1391.83 8.94C1399.57 14.6333 1404.47 22.3333 1406.53 32.04H1392.67C1388.84 19.16 1379.23 12.72 1363.83 12.72C1354.49 12.72 1346.93 16.1267 1341.15 22.94C1334.99 30.3133 1331.91 40.3467 1331.91 53.04C1331.91 65.64 1334.89 75.6267 1340.87 83C1346.65 90.1867 1354.31 93.78 1363.83 93.78C1372.04 93.78 1378.71 91.96 1383.85 88.32C1390.47 83.7467 1393.79 76.7 1393.79 67.18V64.52H1366.91V52.2H1407.23V104H1396.03L1395.33 91.26C1389.17 100.967 1378.48 105.82 1363.27 105.82C1348.89 105.82 1337.6 100.873 1329.39 90.98C1321.36 81.46 1317.35 68.8133 1317.35 53.04C1317.35 37.2667 1321.64 24.62 1330.23 15.1C1338.81 5.48666 1350.25 0.679995 1364.53 0.679995Z" fill="#F06135"/>
</svg>
