<svg width="807" height="106" viewBox="0 0 807 106" fill="none" xmlns="http://www.w3.org/2000/svg">
<path d="M3.84 28.4C3.84 19.44 7.9 12.3933 16.02 7.25999C23.02 2.87333 31.1867 0.679995 40.52 0.679995C50.32 0.679995 58.5333 2.82666 65.16 7.12C72.5333 11.9733 77.1533 19.0667 79.02 28.4H65.16C62.08 17.9467 53.68 12.72 39.96 12.72C34.92 12.72 30.3467 13.7933 26.24 15.94C21.0133 18.6467 18.4 22.52 18.4 27.56C18.4 35.4933 23.9067 40.6733 34.92 43.1L46.68 45.76C56.8533 48 64.5067 50.8 69.64 54.16C77.1067 59.2 80.84 66.2933 80.84 75.44C80.84 84.96 76.92 92.52 69.08 98.12C61.8933 103.253 52.9333 105.82 42.2 105.82C30.3467 105.82 20.7333 102.787 13.36 96.72C6.08 90.84 1.78667 82.7667 0.48 72.5H14.48C17.1867 86.6867 26.52 93.78 42.48 93.78C49.8533 93.78 55.6867 92.1933 59.98 89.02C64.0867 85.8467 66.14 81.74 66.14 76.7C66.14 67.9267 58.86 61.9533 44.3 58.78L31.7 56.12C13.1267 52.0133 3.84 42.7733 3.84 28.4ZM183.258 71.66C181.111 82.58 175.978 91.0733 167.858 97.14C160.111 102.927 150.591 105.82 139.298 105.82C125.018 105.82 113.724 100.873 105.418 90.98C97.2977 81.46 93.2377 68.8133 93.2377 53.04C93.2377 37.2667 97.531 24.62 106.118 15.1C114.704 5.48666 126.138 0.679995 140.418 0.679995C151.058 0.679995 160.204 3.66666 167.858 9.64C175.604 15.8 180.551 24.2 182.698 34.84H168.838C167.251 28.2133 164.031 22.94 159.178 19.02C154.044 14.82 147.558 12.72 139.718 12.72C130.384 12.72 122.824 16.1267 117.038 22.94C110.878 30.3133 107.798 40.3467 107.798 53.04C107.798 65.64 110.831 75.6267 116.898 83C122.778 90.1867 130.524 93.78 140.138 93.78C156.004 93.78 165.758 86.4067 169.398 71.66H183.258ZM223.973 2.5H240.493L278.713 104H263.313L255.333 82.02H208.713L200.873 104H186.312L223.973 2.5ZM213.053 69.84H250.853L231.813 16.92L213.053 69.84ZM330.674 61.16C328.994 61.2533 326.428 61.3 322.974 61.3H305.054V104H290.774V2.5H322.974C336.881 2.5 347.008 4.32 353.354 7.95999C361.288 12.5333 365.254 20.4667 365.254 31.76C365.254 46.2267 358.534 55.28 345.094 58.92L368.614 104H352.654L330.674 61.16ZM305.054 14.54V49.26H324.094C332.961 49.26 339.214 48.3267 342.854 46.46C347.988 44.0333 350.554 39.2267 350.554 32.04C350.554 24.8533 347.988 19.9533 342.854 17.34C339.121 15.4733 332.868 14.54 324.094 14.54H305.054ZM385.196 2.5L412.916 52.06L441.196 2.5H456.876L419.636 64.66V104H405.356V64.38L369.516 2.5H385.196ZM562.902 104L516.422 17.34V104H502.142V2.5H523.142L569.482 88.88V2.5H583.762V104H562.902ZM617.485 53.18C617.485 65.8733 620.705 75.9067 627.145 83.28C633.118 90.28 640.912 93.78 650.525 93.78C660.138 93.78 667.978 90.28 674.045 83.28C680.392 75.9067 683.565 65.8733 683.565 53.18C683.565 40.4867 680.392 30.4533 674.045 23.08C667.978 16.1733 660.138 12.72 650.525 12.72C640.912 12.72 633.118 16.1733 627.145 23.08C620.705 30.4533 617.485 40.4867 617.485 53.18ZM698.125 53.18C698.125 68.6733 693.832 81.2733 685.245 90.98C676.565 100.873 664.992 105.82 650.525 105.82C636.058 105.82 624.485 100.873 615.805 90.98C607.218 81.2733 602.925 68.6733 602.925 53.18C602.925 37.6867 607.218 25.0867 615.805 15.38C624.485 5.58 636.058 0.679995 650.525 0.679995C664.992 0.679995 676.565 5.58 685.245 15.38C693.832 25.0867 698.125 37.6867 698.125 53.18ZM774.64 0.679995C783.32 0.679995 790.553 2.68666 796.34 6.69999C802.966 11.18 806.28 17.3867 806.28 25.32C806.28 36.4267 799.98 46.04 787.38 54.16C782.713 57.24 779.68 59.62 778.28 61.3C776.506 63.4467 775.62 66.34 775.62 69.98V74.32H762.6V69.56C762.6 64.0533 764.046 59.4333 766.94 55.7C769.273 52.8067 773.613 49.3067 779.96 45.2C788.64 39.6933 792.98 33.2533 792.98 25.88C792.98 21.4933 791.206 17.9467 787.66 15.24C784.206 12.6267 779.773 11.32 774.36 11.32C767.266 11.32 761.853 13.5133 758.12 17.9C755.133 21.26 753.453 25.5533 753.08 30.78H740.34C740.433 21.7267 743.7 14.4467 750.14 8.94C756.486 3.43333 764.653 0.679995 774.64 0.679995ZM761.34 104V87.9H777.44V104H761.34Z" fill="#F06135"/>
</svg>
